<svg width="24" height="24" viewBox="0 0 24 24" fill="none" xmlns="http://www.w3.org/2000/svg">
	<path fill-rule="evenodd" clip-rule="evenodd"
		d="M5.18085 21.804L4.30713 22.199C2.21478 23.1448 1.14077 23.3655 1.08476 22.861C1.01979 22.2748 0.992238 20.111 1.00187 16.3699C1.01386 13.8876 1.03324 11.4163 1.06012 8.95587C1.11165 8.63192 1.51782 8.298 2.27863 7.95411C3.02757 7.61549 3.50397 7.52184 3.70795 7.67307C3.76463 7.73333 3.81034 7.92029 3.84506 8.23382C3.98407 9.48817 4.01734 12.716 3.94476 17.9173C3.93389 18.4948 3.93042 19.0262 3.93423 19.5113L7.11705 17.9865C7.42913 17.8741 7.65719 17.9607 7.80124 18.2464C7.9453 18.532 8.03009 18.7908 8.05586 19.0225C8.14805 19.8541 7.90508 20.4222 7.32719 20.7264L6.74101 21.0128C6.17488 21.3117 5.65479 21.5754 5.18085 21.804Z"
		fill="white" />
	<path fill-rule="evenodd" clip-rule="evenodd"
		d="M11.286 19.1088C9.87575 19.6747 8.9254 19.4635 8.43511 18.4754C7.94481 17.4872 7.63016 16.3661 7.49115 15.1117C7.42764 14.5391 7.38933 13.9121 7.37622 13.2308C7.3145 11.0968 7.54536 9.18135 8.06882 7.48442C8.59227 5.78738 9.55527 4.62185 10.958 3.98773L10.9938 3.9716C12.4071 3.43291 13.3608 3.64608 13.8547 4.6111C14.3487 5.57611 14.663 6.66536 14.7974 7.87883C14.8639 8.47867 14.8985 9.12881 14.9012 9.82914C15.0439 14.8329 13.8389 17.9261 11.286 19.1088ZM11.2004 16.1408C11.884 15.7747 12.1917 14.0462 12.1238 10.9558C12.1119 10.1737 12.0712 9.46916 12.0018 8.84198C11.9609 8.47389 11.8832 7.99715 11.7684 7.41198C11.6535 6.8267 11.4014 6.57925 11.0119 6.66943C10.6315 6.84137 10.372 7.42755 10.2332 8.42808C10.0944 9.42861 10.038 10.5529 10.064 11.8011C10.0774 12.5968 10.1187 13.3083 10.1883 13.9355C10.2306 14.3172 10.3125 14.8027 10.434 15.3921C10.5556 15.9814 10.811 16.231 11.2004 16.1408Z"
		fill="white" />
	<path fill-rule="evenodd" clip-rule="evenodd"
		d="M20.1058 15.0572L19.2321 15.4522C17.1399 16.3979 16.0657 16.6186 16.0098 16.1142C15.9449 15.5279 15.9172 13.3642 15.927 9.62309C15.9389 7.14082 15.9583 4.66941 15.9852 2.20909C16.0366 1.88514 16.4428 1.55122 17.2036 1.20722C17.9525 0.868704 18.4291 0.775059 18.633 0.926168C18.6896 0.986545 18.7353 1.17339 18.7701 1.48703C18.9092 2.74139 18.9424 5.96913 18.8698 11.1705C18.859 11.748 18.8554 12.2793 18.8593 12.7645L22.0421 11.2397C22.3542 11.1272 22.5823 11.2138 22.7262 11.4995C22.8703 11.7852 22.9552 12.0439 22.9808 12.2757C23.073 13.1074 22.8302 13.6753 22.2522 13.9795L21.666 14.266C21.0999 14.5649 20.5799 14.8286 20.1058 15.0572Z"
		fill="white" />
</svg>