<svg width="24" height="24" viewBox="0 0 24 24" fill="none" xmlns="http://www.w3.org/2000/svg">
<path fill-rule="evenodd" clip-rule="evenodd" d="M19.4479 17.8778C19.6373 17.8607 19.7984 17.7924 19.931 17.6729C20.0636 17.5534 20.1299 17.3997 20.1299 17.2119C20.2246 16.1874 20.452 14.6209 20.8119 12.5122C21.1719 10.4036 21.5602 8.35041 21.977 6.35274C22.3938 4.35506 22.7253 2.99767 22.9716 2.28056C22.9905 2.21226 23 2.14397 23 2.07567C23 1.922 22.9337 1.76834 22.8011 1.61467C22.4222 1.23904 22.0765 1.04269 21.7639 1.02561C21.4513 1.00854 21.2476 1 21.1529 1C20.7361 1 20.3288 1.05122 19.931 1.15367C19.4384 1.29026 19.0501 1.42685 18.7659 1.56345C18.5007 1.66589 18.3491 1.84517 18.3112 2.10128C18.1786 2.95499 17.9465 4.49166 17.615 6.71129C17.2835 8.93093 17.023 10.8731 16.8336 12.5378C16.6441 14.2026 16.5494 15.3679 16.5494 16.0338C16.5494 16.4777 16.5778 16.7936 16.6346 16.9814C16.862 17.3399 17.2503 17.579 17.7997 17.6985C18.3491 17.818 18.8038 17.8778 19.1637 17.8778H19.4479ZM8.37957 17.3399C8.19959 17.5448 7.977 17.6558 7.71177 17.6729C7.33288 17.6729 6.94926 17.6259 6.56089 17.532C6.17253 17.4381 5.94046 17.246 5.86468 16.9558C5.80785 16.6997 5.77943 16.3326 5.77943 15.8545C5.77943 15.6325 5.79364 15.2355 5.82206 14.6636C5.85047 14.0916 5.9594 13.3873 6.14885 12.5506C6.33829 11.714 6.63194 11.1164 7.02977 10.7579C7.33288 10.5359 7.67388 10.2969 8.05277 10.0407C9 9.46022 9.83356 8.7858 10.5535 8.01746C11.0271 7.52231 11.2639 6.98448 11.2639 6.40396C11.2639 6.07955 11.1881 5.7466 11.0365 5.40512C10.9039 5.08071 10.705 4.85021 10.4398 4.71362C10.1935 4.57703 9.83356 4.50873 9.35995 4.50873H9.21786C7.51286 4.5941 6.47091 5.08925 6.09202 5.99418C5.9594 6.31859 5.8931 6.62592 5.8931 6.91618C5.8931 7.47963 6.11096 8.00893 6.54668 8.50407C6.6793 8.65774 6.7456 8.81141 6.7456 8.96508C6.7456 9.0163 6.72192 9.11447 6.67456 9.2596C6.6272 9.40473 6.48038 9.52852 6.2341 9.63097C5.77943 9.78463 5.33424 9.86147 4.89851 9.86147C4.34912 9.86147 3.74763 9.68219 3.09405 9.32363C2.44046 8.96508 2.07578 8.17113 2 6.94179V6.83935C2 5.98564 2.25101 5.10633 2.75304 4.2014C3.25507 3.29647 4.09337 2.53667 5.26793 1.922C6.32882 1.37563 7.7023 1.10244 9.38836 1.10244H9.84303C11.3775 1.15367 12.68 1.63601 13.7503 2.54948C14.8207 3.46294 15.4222 4.60264 15.5548 5.96857V6.12224C15.5548 7.18083 15.1759 8.05161 14.4181 8.73457C13.6604 9.41754 12.8078 10.0066 11.8606 10.5017C10.7618 11.0652 10.0041 11.6628 9.58728 12.2945C9.24628 12.9433 8.98106 13.6605 8.79161 14.4459C8.659 14.9752 8.59269 15.4789 8.59269 15.9569C8.59269 16.196 8.61164 16.435 8.64953 16.674V16.7253C8.64953 16.9302 8.55954 17.135 8.37957 17.3399ZM8.91949 22.3469C8.4364 22.7823 7.86333 23 7.20027 23C6.51827 23 5.93572 22.7823 5.45264 22.3469C4.96955 21.9115 4.72801 21.395 4.72801 20.7974C4.72801 20.1828 4.96955 19.6577 5.45264 19.2224C5.93572 18.787 6.51827 18.5693 7.20027 18.5693C7.86333 18.5693 8.4364 18.787 8.91949 19.2224C9.40257 19.6577 9.64411 20.1828 9.64411 20.7974C9.64411 21.395 9.40257 21.9115 8.91949 22.3469ZM19.6894 22.3469C19.2064 22.7823 18.6238 23 17.9418 23C17.2788 23 16.7057 22.7823 16.2226 22.3469C15.7395 21.9115 15.498 21.395 15.498 20.7974C15.498 20.1828 15.7395 19.6577 16.2226 19.2224C16.7057 18.787 17.2788 18.5693 17.9418 18.5693C18.6238 18.5693 19.2064 18.787 19.6894 19.2224C20.1725 19.6577 20.4141 20.1828 20.4141 20.7974C20.4141 21.395 20.1725 21.9115 19.6894 22.3469Z" fill="white"/>
</svg>
