<svg width="24" height="24" viewBox="0 0 24 24" fill="none" xmlns="http://www.w3.org/2000/svg">
<path fill-rule="evenodd" clip-rule="evenodd" d="M3 6.24196C3 7.89746 3.11217 10.2844 3.50602 10.9477C3.89987 11.6111 7.33344 14.8964 8.44364 17.5719C9.55384 20.2473 9.74531 24 11.5686 24C13.3919 24 13.9891 22.5693 13.7957 19.6305C13.6022 16.6916 12.2475 14.8777 13.2002 14.1619C13.8476 13.6756 14.9895 14.471 17.7593 14.471C18.966 14.471 21 14.471 21 12.7935C21 11.116 20.6437 11.3085 20.4811 10.1698C20.3186 9.03105 20.8081 8.47897 20.2673 7.19415C19.7266 5.90933 19.0607 5.75167 18.7512 4.83156C18.4416 3.91145 18.5501 2.92226 17.1022 1.57413C15.6543 0.225996 13.3433 0 11.5686 0C9.79396 0 4.52154 0.616577 3.79538 2.35753C3.06921 4.09849 3 4.7331 3 6.24196Z" fill="white"/>
</svg>
