<svg width="25" height="22" viewBox="0 0 25 22" fill="none" xmlns="http://www.w3.org/2000/svg">
    <path fill-rule="evenodd" clip-rule="evenodd"
        d="M12.9999 10C10.2399 10 7.99994 7.76 7.99994 5C7.99994 2.24 10.2399 0 12.9999 0C15.7599 0 17.9999 2.24 17.9999 5C17.9999 7.76 15.7599 10 12.9999 10ZM12.9999 2C11.3499 2 9.99994 3.35 9.99994 5C9.99994 6.65 11.3499 8 12.9999 8C14.6499 8 15.9999 6.65 15.9999 5C15.9999 3.35 14.6499 2 12.9999 2ZM1.99992 22H1.88992C1.33992 21.94 0.94992 21.45 0.99992 20.9C1.00037 20.8978 1.00138 20.8907 1.00306 20.879C1.07653 20.3673 2.42148 11 12.9999 11C14.8299 11 16.5099 11.29 17.9899 11.85C18.5099 12.05 18.7599 12.62 18.5699 13.14C18.3699 13.66 17.7899 13.91 17.2799 13.72C16.0199 13.24 14.5799 13 12.9999 13C4.00992 13 3.02992 20.78 2.98992 21.11C2.93992 21.62 2.49992 22 1.99992 22ZM18.15 15.7401L19.56 14.3301L21.4 16.1801L23.24 14.3401L24.65 15.7501L22.81 17.5901L24.65 19.4301L23.24 20.8401L21.4 19.0001L19.56 20.8301L18.15 19.4201L19.99 17.5801L18.15 15.7401Z"
        fill="white" />
</svg>
