<svg width="24" height="18" viewBox="0 0 24 18" fill="none" xmlns="http://www.w3.org/2000/svg">
    <path fill-rule="evenodd" clip-rule="evenodd"
        d="M10.594 0.532239L11.1087 0.120793C11.3417 -0.0657797 11.6854 -0.032541 11.8764 0.195034C11.9564 0.290389 12.0001 0.409906 12 0.53321V1.23368V1.23578V1.89305V1.96879V16.0312V16.1071V16.7644V16.7664V17.4668C12.0002 17.7611 11.7561 17.9998 11.4549 18C11.3286 18.0001 11.2063 17.9574 11.1087 17.8792L10.594 17.4677L10.5929 17.4668L10.0609 17.0415L10 16.9928L5.33455 13.2627L5.33345 13.2627H1.09091C0.488416 13.2627 0 12.7856 0 12.197V5.80298C0 5.21442 0.488416 4.7373 1.09091 4.7373H5.33345L10 1.00706L10.0622 0.957332L10.5928 0.53321L10.594 0.532239ZM6.58223 6.29953L10 3.56751V14.4321L6.58347 11.7006L6.03496 11.2621L5.33345 11.2627L5.3316 11.2627L2 11.2627V6.7373H5.33345H6.03458L6.58223 6.29953ZM21.0025 15.0001C20.7425 15.0001 20.4925 14.9001 20.2925 14.7101C19.9025 14.3201 19.9025 13.6901 20.2925 13.3001C20.3125 13.2801 22.0025 11.5201 22.0025 9.00006C22.0025 6.48006 20.3125 4.72006 20.2925 4.70006C19.9025 4.31006 19.9125 3.68006 20.3025 3.29006C20.6925 2.90006 21.3225 2.90006 21.7125 3.29006L21.7283 3.3071C21.9466 3.53984 24.0025 5.7326 24.0025 9.00006C24.0025 12.2675 21.9466 14.4603 21.7283 14.693L21.7125 14.7101C21.5125 14.9001 21.2625 15.0001 21.0025 15.0001ZM16.2925 12.7101C16.4925 12.9001 16.7425 13.0001 17.0025 13.0001C17.2625 13.0001 17.5125 12.9001 17.7125 12.7101C17.714 12.7085 17.7155 12.7068 17.7172 12.705C17.8683 12.5427 19.0025 11.3239 19.0025 9.00011C19.0025 6.65011 17.8425 5.42011 17.7125 5.30011C17.3225 4.91011 16.7025 4.91011 16.3125 5.29011C15.9225 5.67011 15.9125 6.30011 16.2825 6.70011C16.3125 6.73011 17.0025 7.48011 17.0025 9.00011C17.0025 10.4332 16.3891 11.1818 16.3022 11.2879C16.297 11.2943 16.2936 11.2984 16.2925 11.3001C15.9025 11.6901 15.9025 12.3201 16.2925 12.7101Z"
        fill="white" />
</svg>
