<svg width="25" height="22" viewBox="0 0 25 22" fill="none" xmlns="http://www.w3.org/2000/svg">
<path fill-rule="evenodd" clip-rule="evenodd" d="M7.5 5C7.5 7.76 9.74 10 12.5 10C15.26 10 17.5 7.76 17.5 5C17.5 2.24 15.26 0 12.5 0C9.74 0 7.5 2.24 7.5 5ZM9.5 5C9.5 3.35 10.85 2 12.5 2C14.15 2 15.5 3.35 15.5 5C15.5 6.65 14.15 8 12.5 8C10.85 8 9.5 6.65 9.5 5ZM22.51 20.12C22.56 20.63 23 21.01 23.5 21.01C23.515 21.01 23.5325 21.0075 23.55 21.005C23.5675 21.0025 23.585 21 23.6 21C24.15 20.94 24.55 20.45 24.49 19.9C24.48 19.8 22.32 11 12.5 11C2.94549 11 0.582728 19.3249 0.503638 19.8661C0.501649 19.8797 0.500471 19.8878 0.499981 19.89C0.449981 20.44 0.839981 20.93 1.38998 20.99C1.93998 21.07 2.42998 20.66 2.48998 20.11C2.52998 19.78 4.50998 13 12.5 13C20.49 13 22.47 19.77 22.51 20.12Z" fill="white"/>
</svg>
