<svg width="24" height="22" viewBox="0 0 24 22" fill="none" xmlns="http://www.w3.org/2000/svg">
    <path fill-rule="evenodd" clip-rule="evenodd"
        d="M12 10C9.23995 10 6.99995 7.76 6.99995 5C6.99995 2.24 9.23995 0 12 0C14.76 0 17 2.24 17 5C17 7.76 14.76 10 12 10ZM12 2C10.35 2 8.99995 3.35 8.99995 5C8.99995 6.65 10.35 8 12 8C13.65 8 15 6.65 15 5C15 3.35 13.65 2 12 2ZM1 21H0.89C0.34 20.94 -0.05 20.45 -1.53668e-08 19.9C0.000446491 19.8978 0.0014612 19.8907 0.00313891 19.879C0.0766095 19.3673 1.42149 11 11.9999 11C13.8299 11 15.5099 11.29 16.9899 11.85C17.5099 12.05 17.7599 12.62 17.5699 13.14C17.3699 13.66 16.7899 13.91 16.2799 13.72C15.0199 13.24 13.5799 13 11.9999 13C3.00993 13 2.03 19.78 1.99 20.11C1.94 20.62 1.5 21 1 21ZM19.3999 13.98H21.3999V16.58H23.9999V18.58H21.3999V21.18H19.3999V18.58H16.7999V16.58H19.3999V13.98Z"
        fill="white" />
</svg>
