<svg width="14" height="14" viewBox="0 0 14 14" fill="none" xmlns="http://www.w3.org/2000/svg">
<path fill-rule="evenodd" clip-rule="evenodd" d="M12.3334 6.99998C12.3334 9.9455 9.94556 12.3333 7.00004 12.3333C4.05452 12.3333 1.66671 9.9455 1.66671 6.99998C1.66671 4.05446 4.05452 1.66665 7.00004 1.66665C9.94556 1.66665 12.3334 4.05446 12.3334 6.99998ZM13.6667 6.99998C13.6667 10.6819 10.6819 13.6666 7.00004 13.6666C3.31814 13.6666 0.333374 10.6819 0.333374 6.99998C0.333374 3.31808 3.31814 0.333313 7.00004 0.333313C10.6819 0.333313 13.6667 3.31808 13.6667 6.99998ZM7.00004 4.99998C7.00004 4.63179 7.29851 4.33331 7.66671 4.33331C8.03491 4.33331 8.33337 4.63179 8.33337 4.99998V7.66665C8.33337 8.03485 8.03491 8.33331 7.66671 8.33331H5.00004C4.63185 8.33331 4.33337 8.03485 4.33337 7.66665C4.33337 7.29845 4.63185 6.99998 5.00004 6.99998H7.00004V4.99998Z" fill="#72767E"/>
</svg>
