<svg width="14" height="8" viewBox="0 0 14 8" fill="none" xmlns="http://www.w3.org/2000/svg">
<path fill-rule="evenodd" clip-rule="evenodd" d="M9.50041 0.862011C9.76149 1.12236 9.76149 1.54447 9.50041 1.80482L6.63046 4.66681L7.69051 5.72392L12.566 0.862011C12.827 0.601661 13.2503 0.601661 13.5114 0.862011C13.7725 1.12236 13.7725 1.54447 13.5114 1.80482L8.16321 7.13815C7.90214 7.3985 7.47885 7.3985 7.21778 7.13815C7.2164 7.13678 7.21502 7.13539 7.21366 7.13401L5.68502 5.60962L4.15223 7.13815C3.89115 7.3985 3.46787 7.3985 3.20679 7.13815L3.19746 7.12866L0.53272 4.47132C0.271645 4.21097 0.271645 3.78886 0.53272 3.52851C0.793794 3.26816 1.21708 3.26816 1.47815 3.52851L3.6796 5.72385L5.20067 4.207L5.21216 4.19526L5.22393 4.1838L8.55498 0.862011C8.81605 0.601661 9.23934 0.601661 9.50041 0.862011Z" fill="#005FFF"/>
</svg>
